<svg viewBox="0 0 64 64" xmlns="http://www.w3.org/2000/svg">
  <g>
  <title>background</title>
  <ellipse ry="1" rx="1" id="svg_3" cy="12" cx="12" stroke-width="4" fill-opacity="null" stroke-opacity="null" stroke="#000000" fill="#000000"/>
  <ellipse ry="1" rx="1" id="svg_5" cy="12" cx="22" stroke-width="4" fill-opacity="null" stroke-opacity="null" stroke="#000000" fill="#000000"/>
  <ellipse ry="1" rx="1" id="svg_6" cy="12" cx="32" stroke-width="4" fill-opacity="null" stroke-opacity="null" stroke="#000000" fill="#000000"/>
  <ellipse ry="1" rx="1" id="svg_7" cy="12" cx="42" stroke-width="4" fill-opacity="null" stroke-opacity="null" stroke="#000000" fill="#000000"/>
  <ellipse ry="1" rx="1" id="svg_8" cy="12" cx="52" stroke-width="4" fill-opacity="null" stroke-opacity="null" stroke="#000000" fill="#000000"/>
  <ellipse ry="1" rx="1" id="svg_9" cy="22" cx="12" stroke-width="4" fill-opacity="null" stroke-opacity="null" stroke="#000000" fill="#000000"/>
  <ellipse ry="1" rx="1" id="svg_10" cy="22" cx="22" stroke-width="4" fill-opacity="null" stroke-opacity="null" stroke="#000000" fill="#000000"/>
  <ellipse ry="1" rx="1" id="svg_11" cy="22" cx="32" stroke-width="4" fill-opacity="null" stroke-opacity="null" stroke="#000000" fill="#000000"/>
  <ellipse ry="1" rx="1" id="svg_12" cy="22" cx="42" stroke-width="4" fill-opacity="null" stroke-opacity="null" stroke="#000000" fill="#000000"/>
  <ellipse ry="1" rx="1" id="svg_13" cy="22" cx="52" stroke-width="4" fill-opacity="null" stroke-opacity="null" stroke="#000000" fill="#000000"/>
  <ellipse ry="1" rx="1" id="svg_14" cy="32" cx="12" stroke-width="4" fill-opacity="null" stroke-opacity="null" stroke="#000000" fill="#000000"/>
  <ellipse ry="1" rx="1" id="svg_15" cy="32" cx="22" stroke-width="4" fill-opacity="null" stroke-opacity="null" stroke="#000000" fill="#000000"/>
  <ellipse ry="1" rx="1" id="svg_16" cy="32" cx="32" stroke-width="4" fill-opacity="null" stroke-opacity="null" stroke="#000000" fill="#000000"/>
  <ellipse ry="1" rx="1" id="svg_17" cy="32" cx="42" stroke-width="4" fill-opacity="null" stroke-opacity="null" stroke="#000000" fill="#000000"/>
  <ellipse ry="1" rx="1" id="svg_18" cy="32" cx="52" stroke-width="4" fill-opacity="null" stroke-opacity="null" stroke="#000000" fill="#000000"/>
  <ellipse ry="1" rx="1" id="svg_19" cy="42" cx="12" stroke-width="4" fill-opacity="null" stroke-opacity="null" stroke="#000000" fill="#000000"/>
  <ellipse ry="1" rx="1" id="svg_20" cy="42" cx="22" stroke-width="4" fill-opacity="null" stroke-opacity="null" stroke="#000000" fill="#000000"/>
  <ellipse ry="1" rx="1" id="svg_21" cy="42" cx="32" stroke-width="4" fill-opacity="null" stroke-opacity="null" stroke="#000000" fill="#000000"/>
  <ellipse ry="1" rx="1" id="svg_22" cy="42" cx="42" stroke-width="4" fill-opacity="null" stroke-opacity="null" stroke="#000000" fill="#000000"/>
  <ellipse ry="1" rx="1" id="svg_23" cy="42" cx="52" stroke-width="4" fill-opacity="null" stroke-opacity="null" stroke="#000000" fill="#000000"/>
  <ellipse ry="1" rx="1" id="svg_24" cy="52" cx="12" stroke-width="4" fill-opacity="null" stroke-opacity="null" stroke="#000000" fill="#000000"/>
  <ellipse ry="1" rx="1" id="svg_25" cy="52" cx="22" stroke-width="4" fill-opacity="null" stroke-opacity="null" stroke="#000000" fill="#000000"/>
  <ellipse ry="1" rx="1" id="svg_26" cy="52" cx="32" stroke-width="4" fill-opacity="null" stroke-opacity="null" stroke="#000000" fill="#000000"/>
  <ellipse ry="1" rx="1" id="svg_27" cy="52" cx="42" stroke-width="4" fill-opacity="null" stroke-opacity="null" stroke="#000000" fill="#000000"/>
  <ellipse ry="1" rx="1" id="svg_28" cy="52" cx="52" stroke-width="4" fill-opacity="null" stroke-opacity="null" stroke="#000000" fill="#000000"/>
 </g>
</svg>